<svg width="34" height="34" viewBox="0 0 34 34" fill="none" xmlns="http://www.w3.org/2000/svg">
<path d="M6.99999 33.6666C4.19022 33.666 1.68249 31.9037 0.729827 29.2603C-0.222837 26.617 0.584094 23.6601 2.74743 21.8671C4.91076 20.0741 7.96604 19.83 10.3867 21.2567L21.2567 10.3867C19.5561 7.49752 20.2688 3.79465 22.9203 1.74314C25.5717 -0.308366 29.3349 -0.0686374 31.7046 2.30273C34.0743 4.67411 34.3114 8.43748 32.258 11.0875C30.2046 13.7375 26.5013 14.4475 23.6133 12.745L12.745 23.6133C13.9608 25.6748 13.9783 28.2298 12.7908 30.3077C11.6034 32.3856 9.39326 33.6676 6.99999 33.6666ZM6.99999 23.6667C5.15904 23.6667 3.66666 25.159 3.66666 27C3.66666 28.8409 5.15904 30.3333 6.99999 30.3333C8.84094 30.3333 10.3333 28.8409 10.3333 27C10.3333 25.159 8.84094 23.6667 6.99999 23.6667ZM27 3.66665C25.179 3.6685 23.6965 5.1314 23.6704 6.95222C23.6443 8.77304 25.0843 10.2778 26.9045 10.3318C28.7247 10.3859 30.2514 8.96915 30.3333 7.14998V7.81665V6.99998C30.3333 5.15904 28.8409 3.66665 27 3.66665Z" fill="white"/>
</svg>
