<svg width="28" height="32" viewBox="0 0 28 32" fill="none" xmlns="http://www.w3.org/2000/svg">
<path d="M27.7084 31.6667L24.305 28.6667L22.3867 26.8833L20.3584 25L21.1917 27.9317H3.24502C1.44772 27.9252 -0.00458874 26.464 1.08956e-05 24.6667V3.26167C-0.00274712 1.46565 1.44902 0.0064319 3.24502 0H24.4634C26.2594 0.0064319 27.7111 1.46565 27.7084 3.26167V31.6667ZM20.1667 17.5133C19.4639 18.4559 18.4522 19.1213 17.3084 19.3933C17.7784 19.9933 18.345 20.6717 18.35 20.6783C20.2619 20.7187 22.0721 19.8195 23.195 18.2717C23.1375 15.0629 22.3582 11.9082 20.915 9.04167C19.6444 8.04461 18.0977 7.46272 16.485 7.375H16.4667L16.245 7.62833C17.6855 8.01525 19.0289 8.69999 20.1884 9.63833C18.7131 8.82734 17.0941 8.31109 15.4217 8.11833C14.3587 8.00028 13.2854 8.01091 12.225 8.15C12.1501 8.15148 12.0753 8.15929 12.0017 8.17333H11.955C10.7123 8.31642 9.4997 8.65387 8.36169 9.17333C7.79169 9.435 7.44169 9.625 7.42669 9.63167C7.41169 9.63833 7.42669 9.63167 7.42669 9.62C8.6565 8.65274 10.0753 7.95384 11.5917 7.56833L11.425 7.37833H11.415C9.80234 7.46627 8.25574 8.04814 6.98502 9.045C5.53653 11.9096 4.75696 15.0655 4.70502 18.275C5.81391 19.8331 7.62669 20.7358 9.53836 20.6817C9.53836 20.6817 10.135 19.955 10.6 19.3667C9.48502 19.0865 8.50256 18.4264 7.82169 17.5C7.83336 17.5083 7.99836 17.62 8.26502 17.7667C8.28294 17.7877 8.30508 17.8048 8.33002 17.8167C8.35114 17.8313 8.37344 17.8441 8.39669 17.855C8.42304 17.867 8.44816 17.8815 8.47169 17.8983C8.84354 18.1033 9.22952 18.2815 9.62669 18.4317C10.3818 18.7307 11.1629 18.9594 11.96 19.115C12.6579 19.2466 13.3665 19.3135 14.0767 19.315C14.7426 19.3149 15.4071 19.2536 16.0617 19.1317C16.8501 18.9932 17.6201 18.7651 18.3567 18.4517C18.9929 18.207 19.6 17.8922 20.1667 17.5133ZM16.77 16.8017C16.0449 16.8649 15.3553 16.4765 15.0335 15.8236C14.7118 15.1708 14.8237 14.3873 15.3156 13.8507C15.8074 13.3142 16.5781 13.1345 17.2565 13.3984C17.9349 13.6622 18.3817 14.3155 18.3817 15.0433C18.4184 15.9732 17.6979 16.7584 16.7684 16.8017H16.77ZM10.99 16.8017C10.0781 16.7222 9.37828 15.9587 9.37828 15.0433C9.37828 14.128 10.0781 13.3645 10.99 13.285C11.4101 13.2863 11.8117 13.4576 12.1034 13.76C12.4343 14.1035 12.6143 14.5649 12.6034 15.0417C12.6419 15.9731 11.9197 16.7602 10.9884 16.8017H10.99Z" fill="white"/>
</svg>
