<svg width="34" height="33" viewBox="0 0 34 33" fill="none" xmlns="http://www.w3.org/2000/svg">
<path d="M16.6286 4.41524e-07C8.47353 -0.00104708 1.52167 5.91331 0.215978 13.9632C-1.08971 22.0131 3.6363 29.8216 11.3736 32.3983C12.207 32.5483 12.5053 32.0367 12.5053 31.5967C12.5053 31.2017 12.492 30.155 12.487 28.7633C7.86198 29.7633 6.88531 26.5333 6.88531 26.5333C6.58084 25.5283 5.92627 24.6656 5.04031 24.1017C3.54031 23.07 5.15531 23.0933 5.15531 23.0933C6.22311 23.2397 7.1629 23.8724 7.70031 24.8067C8.1552 25.6338 8.92158 26.2449 9.82915 26.5044C10.7367 26.7638 11.7103 26.65 12.5336 26.1883C12.611 25.345 12.9862 24.5568 13.592 23.965C9.90198 23.5467 6.02198 22.12 6.02198 15.7483C6.0015 14.1003 6.61348 12.5072 7.73198 11.2967C7.2259 9.86218 7.2855 8.28876 7.89865 6.89667C7.89865 6.89667 9.29365 6.44833 12.4686 8.59833C15.1917 7.85168 18.0656 7.85168 20.7886 8.59833C23.9653 6.44667 25.3586 6.89667 25.3586 6.89667C25.9746 8.2881 26.0343 9.86262 25.5253 11.2967C26.6479 12.507 27.2594 14.1044 27.232 15.755C27.232 22.1433 23.3486 23.5467 19.6453 23.9583C20.4442 24.7751 20.8539 25.8956 20.7703 27.035C20.7703 29.2583 20.7503 31.0517 20.7503 31.5967C20.7503 32.0417 21.047 32.5583 21.8953 32.395C29.6294 29.8139 34.3504 22.005 33.042 13.9572C31.7336 5.90942 24.7821 -0.00186529 16.6286 4.41524e-07Z" fill="white"/>
</svg>
