<svg width="40" height="40" viewBox="0 0 40 40" fill="none" xmlns="http://www.w3.org/2000/svg">
<path d="M19.9729 36.6666C10.7873 36.6564 3.34346 29.2004 3.33337 19.9999C3.98855 20.1853 4.66595 20.28 5.34676 20.2816C7.59893 20.2981 9.71484 19.2029 11.0042 17.3533C12.1569 15.6859 12.4005 13.5515 11.6531 11.6666C12.131 11.752 12.6154 11.7955 13.1008 11.7966C15.2587 11.8127 17.3068 10.845 18.6667 9.16665C19.9974 7.53791 20.5177 5.39201 20.0811 3.33334C29.2708 3.36326 36.6964 10.8494 36.6666 20.0541C36.6367 29.2588 29.1627 36.6964 19.9729 36.6666ZM21.2425 30.9465C21.4985 31.0568 21.7742 31.1135 22.0529 31.1132C22.8937 31.1124 23.6516 30.6049 23.9737 29.8269C24.2958 29.0489 24.119 28.1532 23.5255 27.5566C23.1343 27.1664 22.6049 26.9471 22.0529 26.9466C21.0654 26.9488 20.2156 27.6463 20.0193 28.6156C19.8229 29.5849 20.334 30.5589 21.2425 30.9465ZM11.52 28.1249C11.8535 28.263 12.2108 28.3338 12.5716 28.3332C13.6974 28.3329 14.7113 27.6512 15.1379 26.6077C15.5645 25.5642 15.3191 24.3659 14.5168 23.5749C13.9982 23.0633 13.2995 22.7766 12.5716 22.7766C11.0407 22.7784 9.80042 24.0215 9.7995 25.5549C9.79978 26.6695 10.4635 27.6766 11.4867 28.1149H11.4951H11.5134L11.52 28.1249ZM27.2128 23.9466C28.3312 24.417 29.6251 24.1045 30.4065 23.1751C31.1879 22.2458 31.2753 20.9155 30.6222 19.8916C30.4177 19.5727 30.1504 19.2988 29.8368 19.0866C28.9755 18.504 27.8612 18.4526 26.9501 18.9534C26.0389 19.4543 25.4837 20.4233 25.5117 21.464C25.5397 22.5046 26.1462 23.4423 27.083 23.8932H27.063L27.1129 23.9149L27.1462 23.9282H27.1362C27.16 23.9359 27.1833 23.9448 27.2061 23.9549L27.2128 23.9466ZM19.9729 17.2216C19.3092 17.2205 18.7377 17.6902 18.6091 18.3424C18.4806 18.9945 18.831 19.6466 19.4453 19.8982C20.0596 20.1498 20.7658 19.9305 21.1303 19.375C21.4948 18.8195 21.4156 18.0833 20.9413 17.6183C20.8177 17.4963 20.672 17.399 20.512 17.3316L20.4821 17.3183L20.4372 17.3016C20.2882 17.2483 20.1311 17.2213 19.9729 17.2216ZM26.2127 10.2783C25.148 10.2757 24.2544 11.0812 24.1452 12.142C24.0361 13.2029 24.7469 14.1741 25.7898 14.389C26.8326 14.6039 27.8685 13.9927 28.1863 12.9749C28.5042 11.9571 28.0007 10.8636 27.0214 10.445H27.0048C26.7543 10.3378 26.4851 10.2812 26.2127 10.2783ZM7.49326 15.8333C6.72775 15.8333 6.10719 15.2117 6.10719 14.445C6.10719 13.6782 6.72775 13.0566 7.49326 13.0566C8.25877 13.0566 8.87933 13.6782 8.87933 14.445C8.87842 15.2113 8.25839 15.8324 7.49326 15.8333ZM5.41332 11.6666C4.2646 11.6666 3.33337 10.7339 3.33337 9.58331C3.33337 8.43272 4.2646 7.49999 5.41332 7.49999C6.56204 7.49999 7.49326 8.43272 7.49326 9.58331C7.49143 10.7331 6.56128 11.6648 5.41332 11.6666ZM13.7331 8.88831C12.5844 8.88831 11.6531 7.95558 11.6531 6.80499C11.6531 5.6544 12.5844 4.72167 13.7331 4.72167C14.8818 4.72167 15.813 5.6544 15.813 6.80499C15.813 7.95585 14.8821 8.88906 13.7331 8.88998V8.88831ZM8.881 6.11166C8.11571 6.11166 7.49523 5.49043 7.49492 4.72389C7.49462 3.95736 8.1146 3.33562 8.87989 3.33501C9.64518 3.3344 10.2662 3.95514 10.2671 4.72167C10.2671 5.48869 9.64677 6.11074 8.881 6.11166Z" fill="white"/>
</svg>
