<svg width="1000" height="1000" viewBox="0 0 1000 1000" fill="none" xmlns="http://www.w3.org/2000/svg">
<rect width="1000" height="1000" fill="#E5E5E5"/>
<circle cx="500" cy="500" r="450" fill="#D6BC34" fill-opacity="0.8"/>
<path d="M284.088 496C282.168 496 280.536 495.424 279.192 494.272C278.04 492.928 277.464 491.296 277.464 489.376V320.032H222.168C220.248 320.032 218.616 319.456 217.272 318.304C216.12 316.96 215.544 315.328 215.544 313.408V301.312C215.544 299.392 216.12 297.76 217.272 296.416C218.616 295.072 220.248 294.4 222.168 294.4H360.984C363.096 294.4 364.728 295.072 365.88 296.416C367.224 297.568 367.896 299.2 367.896 301.312V313.408C367.896 315.328 367.224 316.96 365.88 318.304C364.536 319.456 362.904 320.032 360.984 320.032H305.976V489.376C305.976 491.296 305.304 492.928 303.96 494.272C302.616 495.424 300.984 496 299.064 496H284.088ZM460.949 498.88C445.781 498.88 432.629 496.48 421.493 491.68C410.549 486.688 402.197 480.256 396.437 472.384C390.869 464.512 387.893 456.256 387.509 447.616C387.509 445.888 388.085 444.544 389.237 443.584C390.389 442.432 391.829 441.856 393.557 441.856H407.669C411.701 441.856 414.389 443.968 415.733 448.192C418.229 457.792 423.605 464.608 431.861 468.64C440.117 472.48 449.813 474.4 460.949 474.4C474.581 474.4 485.429 471.232 493.493 464.896C501.557 458.368 505.589 449.056 505.589 436.96C505.589 413.728 491.477 402.112 463.253 402.112H435.893C433.973 402.112 432.341 401.536 430.997 400.384C429.845 399.04 429.269 397.408 429.269 395.488V387.712C429.269 385.024 430.325 382.432 432.437 379.936L488.309 318.88H403.349C401.429 318.88 399.797 318.304 398.453 317.152C397.301 315.808 396.725 314.176 396.725 312.256V301.312C396.725 299.392 397.301 297.76 398.453 296.416C399.797 295.072 401.429 294.4 403.349 294.4H518.261C520.373 294.4 522.005 295.072 523.157 296.416C524.501 297.568 525.173 299.2 525.173 301.312V311.68C525.173 313.984 524.117 316.192 522.005 318.304L466.421 380.224L471.029 380.512C490.613 381.088 506.069 386.176 517.397 395.776C528.725 405.376 534.389 419.392 534.389 437.824C534.389 450.304 531.221 461.152 524.885 470.368C518.549 479.584 509.813 486.688 498.677 491.68C487.541 496.48 474.965 498.88 460.949 498.88ZM574.014 496C572.094 496 570.462 495.424 569.118 494.272C567.966 492.928 567.39 491.296 567.39 489.376V468.64C567.39 466.72 567.966 465.184 569.118 464.032C570.462 462.688 572.094 462.016 574.014 462.016H594.75C596.67 462.016 598.302 462.688 599.646 464.032C600.99 465.184 601.662 466.72 601.662 468.64V489.376C601.662 491.296 600.99 492.928 599.646 494.272C598.302 495.424 596.67 496 594.75 496H574.014ZM704.752 498.88C690.16 498.88 677.584 496.288 667.024 491.104C656.464 485.92 648.304 479.104 642.544 470.656C636.976 462.208 634 453.184 633.616 443.584V443.008C633.616 441.472 634.192 440.224 635.344 439.264C636.496 438.304 637.84 437.824 639.376 437.824H654.928C658.96 437.824 661.552 439.936 662.704 444.16C665.392 454.336 670.576 461.92 678.256 466.912C685.936 471.904 694.768 474.4 704.752 474.4C717.616 474.4 728.272 470.56 736.72 462.88C745.36 455.008 749.68 444.16 749.68 430.336C749.68 417.856 745.36 407.776 736.72 400.096C728.272 392.416 717.616 388.576 704.752 388.576C697.84 388.576 692.272 389.536 688.048 391.456C683.824 393.184 679.6 395.68 675.376 398.944C673.072 400.672 671.056 402.016 669.328 402.976C667.792 403.744 666.064 404.128 664.144 404.128H649.168C647.44 404.128 645.904 403.552 644.56 402.4C643.216 401.056 642.64 399.52 642.832 397.792L652.048 301.6C652.24 299.296 652.912 297.568 654.064 296.416C655.408 295.072 657.136 294.4 659.248 294.4H759.76C761.68 294.4 763.216 295.072 764.368 296.416C765.712 297.568 766.384 299.104 766.384 301.024V312.256C766.384 314.176 765.712 315.808 764.368 317.152C763.216 318.304 761.68 318.88 759.76 318.88H676.816L671.344 375.616C681.712 369.088 694.192 365.824 708.784 365.824C721.456 365.824 733.072 368.416 743.632 373.6C754.384 378.784 762.832 386.272 768.976 396.064C775.312 405.856 778.48 417.376 778.48 430.624C778.48 444.832 775.312 457.12 768.976 467.488C762.832 477.664 754.192 485.44 743.056 490.816C731.92 496.192 719.152 498.88 704.752 498.88ZM186.144 668.44C173.568 668.44 163.824 665.176 156.912 658.648C150.096 652.024 146.496 642.088 146.112 628.84C146.016 625.96 145.968 621.88 145.968 616.6C145.968 611.32 146.016 607.288 146.112 604.504C146.496 591.544 150.24 581.704 157.344 574.984C164.448 568.168 174.048 564.76 186.144 564.76C198.144 564.76 207.696 568.168 214.8 574.984C221.904 581.704 225.648 591.544 226.032 604.504C226.224 610.072 226.32 614.104 226.32 616.6C226.32 619 226.224 623.08 226.032 628.84C225.648 642.088 222 652.024 215.088 658.648C208.272 665.176 198.624 668.44 186.144 668.44ZM186.144 656.2C193.728 656.2 199.776 653.896 204.288 649.288C208.8 644.68 211.248 637.624 211.632 628.12C211.824 622.36 211.92 618.52 211.92 616.6C211.92 614.488 211.824 610.648 211.632 605.08C211.248 595.576 208.752 588.52 204.144 583.912C199.632 579.304 193.632 577 186.144 577C178.56 577 172.464 579.304 167.856 583.912C163.344 588.52 160.896 595.576 160.512 605.08C160.416 607.864 160.368 611.704 160.368 616.6C160.368 621.4 160.416 625.24 160.512 628.12C160.896 637.624 163.344 644.68 167.856 649.288C172.464 653.896 178.56 656.2 186.144 656.2ZM271.501 667C269.005 667 267.229 665.8 266.173 663.4L239.533 596.584L239.245 595.144C239.245 594.28 239.533 593.56 240.109 592.984C240.685 592.408 241.405 592.12 242.269 592.12H249.181C250.813 592.12 252.013 592.936 252.781 594.568L274.669 651.304L296.557 594.568C297.421 592.936 298.573 592.12 300.013 592.12H307.069C307.837 592.12 308.509 592.408 309.085 592.984C309.757 593.56 310.093 594.28 310.093 595.144L309.805 596.584L283.021 663.4C281.965 665.8 280.189 667 277.693 667H271.501ZM352.452 668.44C342.564 668.44 334.644 665.416 328.692 659.368C322.836 653.224 319.62 644.872 319.044 634.312L318.9 629.416L319.044 624.664C319.716 614.296 322.98 606.04 328.836 599.896C334.788 593.752 342.612 590.68 352.308 590.68C362.964 590.68 371.22 594.088 377.076 600.904C382.932 607.624 385.86 616.744 385.86 628.264V630.712C385.86 631.672 385.524 632.488 384.852 633.16C384.276 633.736 383.508 634.024 382.548 634.024H332.724V635.32C333.012 641.56 334.884 646.888 338.34 651.304C341.892 655.624 346.548 657.784 352.308 657.784C356.724 657.784 360.324 656.92 363.108 655.192C365.988 653.368 368.1 651.496 369.444 649.576C370.308 648.424 370.932 647.752 371.316 647.56C371.796 647.272 372.612 647.128 373.764 647.128H380.82C381.684 647.128 382.404 647.368 382.98 647.848C383.556 648.328 383.844 649 383.844 649.864C383.844 651.976 382.5 654.52 379.812 657.496C377.22 660.472 373.524 663.064 368.724 665.272C364.02 667.384 358.596 668.44 352.452 668.44ZM372.18 624.088V623.656C372.18 617.032 370.356 611.656 366.708 607.528C363.156 603.304 358.356 601.192 352.308 601.192C346.26 601.192 341.46 603.304 337.908 607.528C334.452 611.656 332.724 617.032 332.724 623.656V624.088H372.18ZM406.39 667C405.43 667 404.614 666.712 403.942 666.136C403.366 665.464 403.078 664.648 403.078 663.688V595.576C403.078 594.616 403.366 593.8 403.942 593.128C404.614 592.456 405.43 592.12 406.39 592.12H413.014C413.974 592.12 414.79 592.456 415.462 593.128C416.134 593.8 416.47 594.616 416.47 595.576V601.912C420.406 595.384 427.126 592.12 436.63 592.12H442.246C443.206 592.12 443.974 592.456 444.55 593.128C445.222 593.704 445.558 594.472 445.558 595.432V601.336C445.558 602.296 445.222 603.064 444.55 603.64C443.974 604.216 443.206 604.504 442.246 604.504H433.606C428.422 604.504 424.342 606.04 421.366 609.112C418.39 612.088 416.902 616.168 416.902 621.352V663.688C416.902 664.648 416.566 665.464 415.894 666.136C415.222 666.712 414.406 667 413.446 667H406.39ZM477.653 667C476.405 667 475.445 666.712 474.773 666.136C474.101 665.56 473.525 664.648 473.045 663.4L452.597 596.584L452.309 595.144C452.309 594.28 452.597 593.56 453.173 592.984C453.845 592.408 454.565 592.12 455.333 592.12H461.669C462.629 592.12 463.397 592.408 463.973 592.984C464.645 593.464 465.077 593.992 465.269 594.568L481.253 648.856L498.389 595.144C498.581 594.376 499.013 593.704 499.685 593.128C500.357 592.456 501.269 592.12 502.421 592.12H507.317C508.469 592.12 509.381 592.456 510.053 593.128C510.725 593.704 511.157 594.376 511.349 595.144L528.485 648.856L544.469 594.568C544.565 594.088 544.901 593.56 545.477 592.984C546.149 592.408 546.965 592.12 547.925 592.12H554.405C555.173 592.12 555.845 592.408 556.421 592.984C556.997 593.56 557.285 594.28 557.285 595.144L556.997 596.584L536.693 663.4C536.213 664.648 535.637 665.56 534.965 666.136C534.293 666.712 533.285 667 531.941 667H526.325C523.733 667 522.149 665.8 521.573 663.4L504.869 611.848L488.165 663.4C487.397 665.8 485.765 667 483.269 667H477.653ZM592.005 668.44C587.301 668.44 582.933 667.48 578.901 665.56C574.869 663.64 571.653 661.048 569.253 657.784C566.949 654.424 565.797 650.728 565.797 646.696C565.797 640.36 568.389 635.176 573.573 631.144C578.853 627.016 585.957 624.328 594.885 623.08L616.341 620.056V615.88C616.341 606.088 610.725 601.192 599.493 601.192C595.269 601.192 591.813 602.104 589.125 603.928C586.437 605.656 584.421 607.72 583.077 610.12C582.789 610.984 582.405 611.608 581.925 611.992C581.541 612.376 580.965 612.568 580.197 612.568H574.005C573.141 612.568 572.373 612.28 571.701 611.704C571.125 611.032 570.837 610.264 570.837 609.4C570.933 607.096 571.989 604.504 574.005 601.624C576.117 598.648 579.333 596.104 583.653 593.992C587.973 591.784 593.301 590.68 599.637 590.68C610.389 590.68 618.117 593.224 622.821 598.312C627.525 603.304 629.877 609.544 629.877 617.032V663.688C629.877 664.648 629.541 665.464 628.869 666.136C628.293 666.712 627.525 667 626.565 667H619.941C618.981 667 618.165 666.712 617.493 666.136C616.917 665.464 616.629 664.648 616.629 663.688V657.496C614.517 660.568 611.445 663.16 607.413 665.272C603.381 667.384 598.245 668.44 592.005 668.44ZM595.029 657.64C601.269 657.64 606.357 655.624 610.293 651.592C614.325 647.464 616.341 641.56 616.341 633.88V629.848L599.637 632.296C592.821 633.256 587.685 634.888 584.229 637.192C580.773 639.4 579.045 642.232 579.045 645.688C579.045 649.528 580.629 652.504 583.797 654.616C586.965 656.632 590.709 657.64 595.029 657.64ZM679.107 667C663.939 667 656.355 658.552 656.355 641.656V603.64H645.123C644.163 603.64 643.347 603.352 642.675 602.776C642.099 602.104 641.811 601.288 641.811 600.328V595.432C641.811 594.472 642.099 593.704 642.675 593.128C643.347 592.456 644.163 592.12 645.123 592.12H656.355V568.072C656.355 567.112 656.643 566.344 657.219 565.768C657.891 565.096 658.707 564.76 659.667 564.76H666.435C667.395 564.76 668.163 565.096 668.739 565.768C669.411 566.344 669.747 567.112 669.747 568.072V592.12H687.603C688.563 592.12 689.331 592.456 689.907 593.128C690.579 593.704 690.915 594.472 690.915 595.432V600.328C690.915 601.288 690.579 602.104 689.907 602.776C689.331 603.352 688.563 603.64 687.603 603.64H669.747V640.648C669.747 645.448 670.563 649.096 672.195 651.592C673.827 653.992 676.515 655.192 680.259 655.192H689.043C690.003 655.192 690.771 655.528 691.347 656.2C692.019 656.776 692.355 657.544 692.355 658.504V663.688C692.355 664.648 692.019 665.464 691.347 666.136C690.771 666.712 690.003 667 689.043 667H679.107ZM736.365 668.44C726.093 668.44 718.029 665.56 712.173 659.8C706.413 653.944 703.341 645.784 702.957 635.32L702.813 629.56L702.957 623.8C703.341 613.336 706.413 605.224 712.173 599.464C718.029 593.608 726.093 590.68 736.365 590.68C743.277 590.68 749.133 591.928 753.933 594.424C758.733 596.92 762.285 599.992 764.589 603.64C766.989 607.288 768.285 610.936 768.477 614.584C768.573 615.544 768.285 616.312 767.613 616.888C766.941 617.464 766.125 617.752 765.165 617.752H758.253C757.293 617.752 756.573 617.56 756.093 617.176C755.613 616.792 755.133 616.024 754.653 614.872C753.021 610.264 750.717 607 747.741 605.08C744.765 603.064 741.021 602.056 736.509 602.056C730.557 602.056 725.805 603.928 722.253 607.672C718.797 611.32 716.925 616.936 716.637 624.52L716.493 629.704L716.637 634.6C716.925 642.28 718.797 647.944 722.253 651.592C725.709 655.24 730.461 657.064 736.509 657.064C741.021 657.064 744.765 656.104 747.741 654.184C750.717 652.168 753.021 648.856 754.653 644.248C755.133 643.096 755.613 642.328 756.093 641.944C756.573 641.464 757.293 641.224 758.253 641.224H765.165C766.125 641.224 766.941 641.56 767.613 642.232C768.285 642.808 768.573 643.576 768.477 644.536C768.285 648.088 766.989 651.736 764.589 655.48C762.285 659.128 758.733 662.2 753.933 664.696C749.229 667.192 743.373 668.44 736.365 668.44ZM789.034 667C788.074 667 787.258 666.712 786.586 666.136C786.01 665.464 785.722 664.648 785.722 663.688V568.072C785.722 567.112 786.01 566.344 786.586 565.768C787.258 565.096 788.074 564.76 789.034 564.76H796.234C797.194 564.76 797.962 565.096 798.538 565.768C799.21 566.344 799.546 567.112 799.546 568.072V601.624C802.33 598.072 805.594 595.384 809.338 593.56C813.082 591.64 817.738 590.68 823.306 590.68C832.522 590.68 839.674 593.656 844.762 599.608C849.946 605.464 852.538 613.288 852.538 623.08V663.688C852.538 664.648 852.202 665.464 851.53 666.136C850.954 666.712 850.186 667 849.226 667H842.026C841.066 667 840.25 666.712 839.578 666.136C839.002 665.464 838.714 664.648 838.714 663.688V623.8C838.714 616.984 837.034 611.704 833.674 607.96C830.41 604.216 825.658 602.344 819.418 602.344C813.37 602.344 808.522 604.264 804.874 608.104C801.322 611.848 799.546 617.08 799.546 623.8V663.688C799.546 664.648 799.21 665.464 798.538 666.136C797.962 666.712 797.194 667 796.234 667H789.034Z" fill="black"/>
</svg>
